# xmcd
#
# Track frame offsets: 
#        150
#        14820
#        33876
#        54028
#        69815
#        85703
#        101997
#        116992
#        130243
#        146533
#        164396
#        180992
#        198583
#
# Disc length: 2969 seconds
#
# Revision: 0
# Processed by: cddbd v1.5.2PL0 Copyright (c) Steve Scherf et al.
# Submitted via: ExactAudioCopy v0.99pb4
#
DISCID=ad0b970d
DTITLE=Example - We Didn't Invent The Remix
DYEAR=2006
DGENRE=Hip-Hop/Rap
TTITLE0=Eyeballs Painted Black F/ The Rolling Stones
TTITLE1=Loneliness Costs F/ Harry Nilsson
TTITLE2=One Night F/ José González
TTITLE3=Dead Famous F/ The Streets
TTITLE4=Vile F/ Lily Allen
TTITLE5=Diamond Day F/ Vashti Bunyan
TTITLE6=Toxic Breath F/ Britney Spears
TTITLE7=Get Off F/ Prince
TTITLE8=I Need A Fast Car F/ Tracy Chapman
TTITLE9=Bikini Woman F/ Brenda Russel
TTITLE10=Alone With The TV F/ The Mitchell Brothers
TTITLE11=The Sell-Out [Bonus]
TTITLE12=Yes Please! [Bonus]
EXTD=
EXTT0=
EXTT1=
EXTT2=
EXTT3=
EXTT4=
EXTT5=
EXTT6=
EXTT7=
EXTT8=
EXTT9=
EXTT10=
EXTT11=
EXTT12=
PLAYORDER=
